<svg xmlns="http://www.w3.org/2000/svg" viewBox="0 0 256 256" preserveAspectRatio="xMidYMid meet" role="img" aria-labelledby="title">
  <title id="title">ICAI Comillas</title>
  <g fill="#e6b425">
    <path d="M126 8h6v10h-6z"/>
    <path d="M121 12h16v5h-16z"/>
    <path d="M99 42c2-11 9-21 20-25 8-3 20-3 28 1 10 5 16 14 18 24l-6 40H105zm12 9 6 8 10-9 11 9 10-9 7 9 2-15c-2-8-7-14-14-18-8-4-19-4-27 0-7 4-12 11-14 19l3 14zm2 15 2 10h29l10-10-9-8-10 9-11-10z"/>
    <path d="M52 42 22 73l17 17 9-9 9 9 10-10-9-9 9-9-10-10-9 9-9-9 13-13z"/>
    <path d="M204 42 234 73l-17 17-9-9-9 9-10-10 9-9-9-9 10-10 9 9 9-9-13-13z"/>
    <path d="M48 78 87 117l-11 11-39-39z"/>
    <path d="M208 78 169 117l11 11 39-39z"/>
    <path d="M108 92c16-15 41-13 56 2 7 7 11 15 13 24 12-2 22 7 22 19 0 8-5 15-12 18l18 25-13 11-25-35c-4-5-3-12 2-16 4-3 10-3 14 1 3-3 3-8 0-11-4-5-12-4-15 2l-6 11-4-12c-6-21-26-31-44-21l22 9-11 9 16 8-22 8c2 7 0 15-5 21-7 8-19 11-29 6l-16-9 7-14 16 8c5 2 11 1 14-3 3-3 4-8 2-12l-27 6c-8 2-15 7-19 14l-11 19-14-8 11-19c6-12 18-21 32-24l22-5-18-8z"/>
    <path d="M118 157c7 5 13 11 17 19l14 29 29 12-7 16-39-17-14-31-22 23-34 2-1-17 27-1z"/>
    <path d="M87 92c6 2 11 7 13 13l-13 5c-1-3-3-5-6-6-4-1-8 1-10 5l-13-4c4-10 17-16 29-13z"/>
    <path d="M55 178a25 25 0 1 1-10-2c3 0 7 1 10 2zm-10 12a12 12 0 1 0 0 24 12 12 0 0 0 0-24z"/>
    <path d="M82 195a25 25 0 1 1-10-2c3 0 7 1 10 2zm-10 12a12 12 0 1 0 0 24 12 12 0 0 0 0-24z"/>
    <path d="M209 178a25 25 0 1 0 10-2c-3 0-7 1-10 2zm10 12a12 12 0 1 1 0 24 12 12 0 0 1 0-24z"/>
    <path d="M182 195a25 25 0 1 0 10-2c-3 0-7 1-10 2zm10 12a12 12 0 1 1 0 24 12 12 0 0 1 0-24z"/>
  </g>
</svg>
